<mxfile host="app.diagrams.net" agent="Mozilla/5.0 (Windows NT 10.0; Win64; x64) AppleWebKit/537.36 (KHTML, like Gecko) Chrome/136.0.0.0 Safari/537.36" version="27.0.2">
  <diagram name="Page-1" id="iMTH0MK25sWSy7COQOy-">
    <mxGraphModel dx="4178" dy="2598" grid="1" gridSize="10" guides="1" tooltips="1" connect="1" arrows="1" fold="1" page="1" pageScale="1" pageWidth="1600" pageHeight="1200" math="0" shadow="0" adaptiveColors="auto">
      <root>
        <mxCell id="0" />
        <mxCell id="1" parent="0" />
        <mxCell id="pQ9LS37SAZMf7bVdZtcm-84" style="edgeStyle=orthogonalEdgeStyle;rounded=1;orthogonalLoop=1;jettySize=auto;html=1;entryX=0.5;entryY=1;entryDx=0;entryDy=0;strokeColor=#2D7600;align=center;verticalAlign=middle;fontFamily=Helvetica;fontSize=11;fontColor=default;labelBackgroundColor=default;jumpStyle=arc;jumpSize=12;startArrow=classic;startFill=1;endArrow=classic;curved=0;fillColor=#60a917;exitX=1;exitY=0.25;exitDx=0;exitDy=0;" parent="1" source="Ta_uI1cfc9WH9nYOTXBI-56" target="Ta_uI1cfc9WH9nYOTXBI-110" edge="1">
          <mxGeometry relative="1" as="geometry">
            <mxPoint x="30" y="920" as="sourcePoint" />
          </mxGeometry>
        </mxCell>
        <mxCell id="pQ9LS37SAZMf7bVdZtcm-7" style="edgeStyle=orthogonalEdgeStyle;rounded=1;orthogonalLoop=1;jettySize=auto;html=1;exitX=1;exitY=0.75;exitDx=0;exitDy=0;strokeColor=#2D7600;align=center;verticalAlign=middle;fontFamily=Helvetica;fontSize=11;fontColor=default;labelBackgroundColor=default;jumpStyle=arc;jumpSize=12;startArrow=classic;startFill=1;endArrow=classic;curved=0;fillColor=#60a917;entryX=0.5;entryY=1;entryDx=0;entryDy=0;" parent="1" source="Ta_uI1cfc9WH9nYOTXBI-60" target="Ta_uI1cfc9WH9nYOTXBI-110" edge="1">
          <mxGeometry relative="1" as="geometry">
            <mxPoint x="1200" y="450" as="targetPoint" />
          </mxGeometry>
        </mxCell>
        <mxCell id="Ta_uI1cfc9WH9nYOTXBI-29" value="Netforum VM" style="swimlane;whiteSpace=wrap;html=1;fillColor=#60a917;fontColor=#ffffff;strokeColor=#2D7600;" parent="1" vertex="1">
          <mxGeometry x="-580" y="-330" width="1030" height="420" as="geometry">
            <mxRectangle x="990" y="70" width="110" height="30" as="alternateBounds" />
          </mxGeometry>
        </mxCell>
        <mxCell id="Ta_uI1cfc9WH9nYOTXBI-13" value="ADFS" style="verticalLabelPosition=middle;verticalAlign=middle;html=1;shape=trapezoid;perimeter=trapezoidPerimeter;whiteSpace=wrap;size=0.23;arcSize=10;flipV=1;labelPosition=center;align=center;" parent="Ta_uI1cfc9WH9nYOTXBI-29" vertex="1">
          <mxGeometry x="180" y="200" width="100" height="58" as="geometry" />
        </mxCell>
        <mxCell id="Ta_uI1cfc9WH9nYOTXBI-34" style="edgeStyle=orthogonalEdgeStyle;rounded=1;orthogonalLoop=1;jettySize=auto;html=1;exitX=0.5;exitY=1;exitDx=0;exitDy=0;startArrow=classic;startFill=1;curved=0;jumpStyle=arc;jumpSize=12;entryX=1;entryY=0.5;entryDx=0;entryDy=0;entryPerimeter=0;" parent="Ta_uI1cfc9WH9nYOTXBI-29" source="Ta_uI1cfc9WH9nYOTXBI-15" target="Ta_uI1cfc9WH9nYOTXBI-32" edge="1">
          <mxGeometry relative="1" as="geometry" />
        </mxCell>
        <mxCell id="Ta_uI1cfc9WH9nYOTXBI-15" value="iWeb" style="rounded=0;whiteSpace=wrap;html=1;" parent="Ta_uI1cfc9WH9nYOTXBI-29" vertex="1">
          <mxGeometry x="630" y="89" width="120" height="60" as="geometry" />
        </mxCell>
        <mxCell id="pQ9LS37SAZMf7bVdZtcm-6" style="edgeStyle=orthogonalEdgeStyle;rounded=1;orthogonalLoop=1;jettySize=auto;html=1;exitX=1;exitY=0.5;exitDx=0;exitDy=0;exitPerimeter=0;entryX=0;entryY=0.5;entryDx=0;entryDy=0;curved=0;startArrow=classic;startFill=1;jumpStyle=arc;jumpSize=12;" parent="Ta_uI1cfc9WH9nYOTXBI-29" source="Ta_uI1cfc9WH9nYOTXBI-32" target="Ta_uI1cfc9WH9nYOTXBI-110" edge="1">
          <mxGeometry relative="1" as="geometry">
            <mxPoint x="520" y="315.00000000000045" as="sourcePoint" />
          </mxGeometry>
        </mxCell>
        <mxCell id="pQ9LS37SAZMf7bVdZtcm-18" style="edgeStyle=orthogonalEdgeStyle;rounded=1;orthogonalLoop=1;jettySize=auto;html=1;exitX=0;exitY=0.5;exitDx=0;exitDy=0;exitPerimeter=0;entryX=1;entryY=0.5;entryDx=0;entryDy=0;strokeColor=default;align=center;verticalAlign=middle;fontFamily=Helvetica;fontSize=11;fontColor=default;labelBackgroundColor=default;startArrow=classic;startFill=1;endArrow=classic;curved=0;jumpStyle=arc;jumpSize=12;" parent="Ta_uI1cfc9WH9nYOTXBI-29" source="Ta_uI1cfc9WH9nYOTXBI-32" target="pQ9LS37SAZMf7bVdZtcm-17" edge="1">
          <mxGeometry relative="1" as="geometry" />
        </mxCell>
        <mxCell id="Ta_uI1cfc9WH9nYOTXBI-32" value="Netforum Database (Data Authority" style="strokeWidth=2;html=1;shape=mxgraph.flowchart.database;whiteSpace=wrap;" parent="Ta_uI1cfc9WH9nYOTXBI-29" vertex="1">
          <mxGeometry x="420" y="175" width="120" height="110" as="geometry" />
        </mxCell>
        <mxCell id="Ta_uI1cfc9WH9nYOTXBI-110" value="SigmaConnect API /&lt;br&gt;Request Endpoints" style="shape=parallelogram;perimeter=parallelogramPerimeter;whiteSpace=wrap;html=1;fixedSize=1;fontFamily=Helvetica;fontSize=11;fontColor=default;labelBackgroundColor=default;" parent="Ta_uI1cfc9WH9nYOTXBI-29" vertex="1">
          <mxGeometry x="610" y="285" width="160" height="60" as="geometry" />
        </mxCell>
        <mxCell id="pQ9LS37SAZMf7bVdZtcm-17" value="xWeb" style="rounded=0;whiteSpace=wrap;html=1;" parent="Ta_uI1cfc9WH9nYOTXBI-29" vertex="1">
          <mxGeometry x="170" y="89" width="120" height="60" as="geometry" />
        </mxCell>
        <mxCell id="Ta_uI1cfc9WH9nYOTXBI-14" value="Identity" style="strokeWidth=2;html=1;shape=mxgraph.flowchart.start_1;whiteSpace=wrap;" parent="Ta_uI1cfc9WH9nYOTXBI-29" vertex="1">
          <mxGeometry x="120" y="320" width="220" height="60" as="geometry" />
        </mxCell>
        <mxCell id="Ta_uI1cfc9WH9nYOTXBI-33" style="edgeStyle=orthogonalEdgeStyle;rounded=1;orthogonalLoop=1;jettySize=auto;html=1;exitX=1;exitY=0.5;exitDx=0;exitDy=0;exitPerimeter=0;entryX=0;entryY=0.5;entryDx=0;entryDy=0;entryPerimeter=0;startArrow=classic;startFill=1;curved=0;jumpStyle=arc;jumpSize=12;" parent="Ta_uI1cfc9WH9nYOTXBI-29" source="Ta_uI1cfc9WH9nYOTXBI-14" target="Ta_uI1cfc9WH9nYOTXBI-32" edge="1">
          <mxGeometry relative="1" as="geometry">
            <mxPoint x="450" y="315.00000000000045" as="targetPoint" />
          </mxGeometry>
        </mxCell>
        <mxCell id="pQ9LS37SAZMf7bVdZtcm-86" style="edgeStyle=orthogonalEdgeStyle;rounded=1;orthogonalLoop=1;jettySize=auto;html=1;exitX=0.5;exitY=1;exitDx=0;exitDy=0;entryX=0.5;entryY=0;entryDx=0;entryDy=0;entryPerimeter=0;curved=0;startArrow=classic;startFill=1;" parent="Ta_uI1cfc9WH9nYOTXBI-29" source="Ta_uI1cfc9WH9nYOTXBI-13" target="Ta_uI1cfc9WH9nYOTXBI-14" edge="1">
          <mxGeometry relative="1" as="geometry" />
        </mxCell>
        <mxCell id="pQ9LS37SAZMf7bVdZtcm-106" value="" style="pointerEvents=1;verticalLabelPosition=bottom;shadow=0;dashed=0;align=center;html=1;verticalAlign=top;shape=mxgraph.electrical.signal_sources.protective_earth;" parent="Ta_uI1cfc9WH9nYOTXBI-29" vertex="1">
          <mxGeometry x="815" y="350" width="50" height="30" as="geometry" />
        </mxCell>
        <mxCell id="pQ9LS37SAZMf7bVdZtcm-107" style="edgeStyle=orthogonalEdgeStyle;rounded=0;orthogonalLoop=1;jettySize=auto;html=1;exitX=1;exitY=0.5;exitDx=0;exitDy=0;entryX=0.5;entryY=0;entryDx=0;entryDy=0;entryPerimeter=0;" parent="Ta_uI1cfc9WH9nYOTXBI-29" source="Ta_uI1cfc9WH9nYOTXBI-110" target="pQ9LS37SAZMf7bVdZtcm-106" edge="1">
          <mxGeometry relative="1" as="geometry" />
        </mxCell>
        <mxCell id="pQ9LS37SAZMf7bVdZtcm-114" style="edgeStyle=orthogonalEdgeStyle;rounded=1;orthogonalLoop=1;jettySize=auto;html=1;exitX=0.75;exitY=0;exitDx=0;exitDy=0;curved=0;" parent="Ta_uI1cfc9WH9nYOTXBI-29" source="Ta_uI1cfc9WH9nYOTXBI-110" target="pQ9LS37SAZMf7bVdZtcm-119" edge="1">
          <mxGeometry relative="1" as="geometry">
            <mxPoint x="760" y="228" as="targetPoint" />
          </mxGeometry>
        </mxCell>
        <mxCell id="pQ9LS37SAZMf7bVdZtcm-119" value="V&lt;sub&gt;dd&lt;/sub&gt;" style="verticalLabelPosition=top;verticalAlign=bottom;shape=mxgraph.electrical.signal_sources.vdd;shadow=0;dashed=0;align=center;strokeWidth=1;fontSize=24;html=1;flipV=1;" parent="Ta_uI1cfc9WH9nYOTXBI-29" vertex="1">
          <mxGeometry x="810" y="230" width="60" height="40" as="geometry" />
        </mxCell>
        <mxCell id="Ta_uI1cfc9WH9nYOTXBI-39" value="Azure Services" style="swimlane;whiteSpace=wrap;html=1;fillColor=#0050ef;fontColor=#ffffff;strokeColor=#001DBC;" parent="1" vertex="1">
          <mxGeometry x="-580" y="110" width="1030" height="900" as="geometry">
            <mxRectangle x="30" y="520" width="140" height="30" as="alternateBounds" />
          </mxGeometry>
        </mxCell>
        <mxCell id="Ta_uI1cfc9WH9nYOTXBI-56" value="Sigma Plus" style="rounded=0;whiteSpace=wrap;html=1;" parent="Ta_uI1cfc9WH9nYOTXBI-39" vertex="1">
          <mxGeometry x="310" y="661" width="120" height="58" as="geometry" />
        </mxCell>
        <mxCell id="Ta_uI1cfc9WH9nYOTXBI-57" value="MemberServices" style="rounded=0;whiteSpace=wrap;html=1;" parent="Ta_uI1cfc9WH9nYOTXBI-39" vertex="1">
          <mxGeometry x="310" y="397" width="120" height="59" as="geometry" />
        </mxCell>
        <mxCell id="Ta_uI1cfc9WH9nYOTXBI-59" value="Marketplace" style="rounded=0;whiteSpace=wrap;html=1;" parent="Ta_uI1cfc9WH9nYOTXBI-39" vertex="1">
          <mxGeometry x="310" y="45" width="120" height="59" as="geometry" />
        </mxCell>
        <mxCell id="pQ9LS37SAZMf7bVdZtcm-121" value="" style="edgeStyle=orthogonalEdgeStyle;rounded=0;orthogonalLoop=1;jettySize=auto;html=1;" parent="Ta_uI1cfc9WH9nYOTXBI-39" source="Ta_uI1cfc9WH9nYOTXBI-60" target="pQ9LS37SAZMf7bVdZtcm-57" edge="1">
          <mxGeometry relative="1" as="geometry" />
        </mxCell>
        <mxCell id="Ta_uI1cfc9WH9nYOTXBI-60" value="Membership&lt;br&gt;/ Management" style="rounded=0;whiteSpace=wrap;html=1;" parent="Ta_uI1cfc9WH9nYOTXBI-39" vertex="1">
          <mxGeometry x="310" y="221" width="120" height="59" as="geometry" />
        </mxCell>
        <mxCell id="Ta_uI1cfc9WH9nYOTXBI-63" value="&lt;br&gt;Sigma Plus&lt;br&gt;Database" style="strokeWidth=2;html=1;shape=mxgraph.flowchart.database;whiteSpace=wrap;" parent="Ta_uI1cfc9WH9nYOTXBI-39" vertex="1">
          <mxGeometry x="310" y="760" width="120" height="60" as="geometry" />
        </mxCell>
        <mxCell id="pQ9LS37SAZMf7bVdZtcm-5" style="edgeStyle=orthogonalEdgeStyle;rounded=1;orthogonalLoop=1;jettySize=auto;html=1;exitX=0.5;exitY=0;exitDx=0;exitDy=0;exitPerimeter=0;entryX=0;entryY=0.75;entryDx=0;entryDy=0;strokeColor=light-dark(#001DBC,#3100FF);align=center;verticalAlign=middle;fontFamily=Helvetica;fontSize=11;fontColor=default;labelBackgroundColor=default;jumpStyle=arc;jumpSize=12;startArrow=classic;startFill=1;endArrow=classic;curved=0;fillColor=#0050ef;" parent="Ta_uI1cfc9WH9nYOTXBI-39" source="Ta_uI1cfc9WH9nYOTXBI-108" target="Ta_uI1cfc9WH9nYOTXBI-59" edge="1">
          <mxGeometry relative="1" as="geometry" />
        </mxCell>
        <mxCell id="Ta_uI1cfc9WH9nYOTXBI-108" value="Azure Blob Storage" style="strokeWidth=2;html=1;shape=mxgraph.flowchart.stored_data;whiteSpace=wrap;" parent="Ta_uI1cfc9WH9nYOTXBI-39" vertex="1">
          <mxGeometry x="50" y="326" width="100" height="60" as="geometry" />
        </mxCell>
        <mxCell id="b8BEaPC_NLEb_fFKRmvo-20" value="Nurseleader Admin" style="rounded=0;whiteSpace=wrap;html=1;" parent="Ta_uI1cfc9WH9nYOTXBI-39" vertex="1">
          <mxGeometry x="310" y="485" width="120" height="59" as="geometry" />
        </mxCell>
        <mxCell id="pQ9LS37SAZMf7bVdZtcm-2" style="edgeStyle=orthogonalEdgeStyle;rounded=1;orthogonalLoop=1;jettySize=auto;html=1;exitX=0;exitY=0.5;exitDx=0;exitDy=0;strokeColor=light-dark(#001DBC,#3100FF);align=center;verticalAlign=middle;fontFamily=Helvetica;fontSize=11;fontColor=default;labelBackgroundColor=default;jumpStyle=arc;jumpSize=12;startArrow=classic;startFill=1;endArrow=classic;curved=0;fillColor=#0050ef;entryX=0.5;entryY=1;entryDx=0;entryDy=0;entryPerimeter=0;" parent="Ta_uI1cfc9WH9nYOTXBI-39" source="Ta_uI1cfc9WH9nYOTXBI-56" target="Ta_uI1cfc9WH9nYOTXBI-108" edge="1">
          <mxGeometry relative="1" as="geometry">
            <mxPoint x="100" y="180" as="targetPoint" />
          </mxGeometry>
        </mxCell>
        <mxCell id="pQ9LS37SAZMf7bVdZtcm-57" value="&lt;br&gt;Marketplace&lt;br&gt;Database" style="strokeWidth=2;html=1;shape=mxgraph.flowchart.database;whiteSpace=wrap;" parent="Ta_uI1cfc9WH9nYOTXBI-39" vertex="1">
          <mxGeometry x="310" y="128" width="120" height="69" as="geometry" />
        </mxCell>
        <mxCell id="pQ9LS37SAZMf7bVdZtcm-59" value="&lt;br&gt;Management&lt;br&gt;Database" style="strokeWidth=2;html=1;shape=mxgraph.flowchart.database;whiteSpace=wrap;" parent="Ta_uI1cfc9WH9nYOTXBI-39" vertex="1">
          <mxGeometry x="310" y="305" width="120" height="67" as="geometry" />
        </mxCell>
        <mxCell id="pQ9LS37SAZMf7bVdZtcm-73" style="edgeStyle=orthogonalEdgeStyle;rounded=1;orthogonalLoop=1;jettySize=auto;html=1;exitX=0.5;exitY=1;exitDx=0;exitDy=0;entryX=0.5;entryY=0;entryDx=0;entryDy=0;entryPerimeter=0;curved=0;jumpStyle=arc;jumpSize=12;startArrow=classic;startFill=1;" parent="Ta_uI1cfc9WH9nYOTXBI-39" source="Ta_uI1cfc9WH9nYOTXBI-56" target="Ta_uI1cfc9WH9nYOTXBI-63" edge="1">
          <mxGeometry relative="1" as="geometry" />
        </mxCell>
        <mxCell id="pQ9LS37SAZMf7bVdZtcm-74" style="edgeStyle=orthogonalEdgeStyle;rounded=1;orthogonalLoop=1;jettySize=auto;html=1;exitX=0.5;exitY=1;exitDx=0;exitDy=0;entryX=0.5;entryY=0;entryDx=0;entryDy=0;entryPerimeter=0;curved=0;jumpStyle=arc;jumpSize=12;startArrow=classic;startFill=1;" parent="Ta_uI1cfc9WH9nYOTXBI-39" source="Ta_uI1cfc9WH9nYOTXBI-60" target="pQ9LS37SAZMf7bVdZtcm-59" edge="1">
          <mxGeometry relative="1" as="geometry" />
        </mxCell>
        <mxCell id="pQ9LS37SAZMf7bVdZtcm-75" style="edgeStyle=orthogonalEdgeStyle;rounded=1;orthogonalLoop=1;jettySize=auto;html=1;exitX=0.5;exitY=1;exitDx=0;exitDy=0;entryX=0.5;entryY=0;entryDx=0;entryDy=0;entryPerimeter=0;curved=0;jumpStyle=arc;jumpSize=12;startArrow=classic;startFill=1;" parent="Ta_uI1cfc9WH9nYOTXBI-39" source="Ta_uI1cfc9WH9nYOTXBI-59" target="pQ9LS37SAZMf7bVdZtcm-57" edge="1">
          <mxGeometry relative="1" as="geometry" />
        </mxCell>
        <mxCell id="Ta_uI1cfc9WH9nYOTXBI-61" value="&lt;br&gt;Membership Database" style="strokeWidth=2;html=1;shape=mxgraph.flowchart.database;whiteSpace=wrap;" parent="Ta_uI1cfc9WH9nYOTXBI-39" vertex="1">
          <mxGeometry x="820" y="100" width="120" height="60" as="geometry" />
        </mxCell>
        <mxCell id="pQ9LS37SAZMf7bVdZtcm-45" value="Sitefinity" style="rounded=0;whiteSpace=wrap;html=1;" parent="Ta_uI1cfc9WH9nYOTXBI-39" vertex="1">
          <mxGeometry x="710" y="723.5" width="120" height="60" as="geometry" />
        </mxCell>
        <mxCell id="pQ9LS37SAZMf7bVdZtcm-48" value="&lt;br&gt;Sitefinity&lt;br&gt;Database" style="strokeWidth=2;html=1;shape=mxgraph.flowchart.database;whiteSpace=wrap;" parent="Ta_uI1cfc9WH9nYOTXBI-39" vertex="1">
          <mxGeometry x="710" y="819" width="120" height="61" as="geometry" />
        </mxCell>
        <mxCell id="pQ9LS37SAZMf7bVdZtcm-78" style="edgeStyle=orthogonalEdgeStyle;rounded=1;orthogonalLoop=1;jettySize=auto;html=1;exitX=0.5;exitY=1;exitDx=0;exitDy=0;entryX=0.5;entryY=0;entryDx=0;entryDy=0;entryPerimeter=0;curved=0;jumpStyle=arc;jumpSize=12;startArrow=classic;startFill=1;" parent="Ta_uI1cfc9WH9nYOTXBI-39" source="pQ9LS37SAZMf7bVdZtcm-45" target="pQ9LS37SAZMf7bVdZtcm-48" edge="1">
          <mxGeometry relative="1" as="geometry" />
        </mxCell>
        <mxCell id="pQ9LS37SAZMf7bVdZtcm-43" value="SigmaNursing.org" style="strokeWidth=2;html=1;shape=mxgraph.flowchart.delay;whiteSpace=wrap;" parent="Ta_uI1cfc9WH9nYOTXBI-39" vertex="1">
          <mxGeometry x="480" y="719" width="130" height="30" as="geometry" />
        </mxCell>
        <mxCell id="pQ9LS37SAZMf7bVdZtcm-44" value="Nursing Centered" style="strokeWidth=2;html=1;shape=mxgraph.flowchart.delay;whiteSpace=wrap;" parent="Ta_uI1cfc9WH9nYOTXBI-39" vertex="1">
          <mxGeometry x="480" y="759" width="130" height="30" as="geometry" />
        </mxCell>
        <mxCell id="pQ9LS37SAZMf7bVdZtcm-68" style="edgeStyle=orthogonalEdgeStyle;rounded=1;orthogonalLoop=1;jettySize=auto;html=1;exitX=1;exitY=0.5;exitDx=0;exitDy=0;exitPerimeter=0;entryX=0;entryY=0.5;entryDx=0;entryDy=0;jumpStyle=arc;jumpSize=12;startArrow=classic;startFill=1;curved=0;" parent="Ta_uI1cfc9WH9nYOTXBI-39" source="pQ9LS37SAZMf7bVdZtcm-43" target="pQ9LS37SAZMf7bVdZtcm-45" edge="1">
          <mxGeometry relative="1" as="geometry" />
        </mxCell>
        <mxCell id="pQ9LS37SAZMf7bVdZtcm-66" style="edgeStyle=orthogonalEdgeStyle;rounded=1;orthogonalLoop=1;jettySize=auto;html=1;exitX=1;exitY=0.5;exitDx=0;exitDy=0;exitPerimeter=0;entryX=0;entryY=0.5;entryDx=0;entryDy=0;jumpStyle=arc;jumpSize=12;startArrow=classic;startFill=1;curved=0;" parent="Ta_uI1cfc9WH9nYOTXBI-39" source="pQ9LS37SAZMf7bVdZtcm-44" target="pQ9LS37SAZMf7bVdZtcm-45" edge="1">
          <mxGeometry relative="1" as="geometry" />
        </mxCell>
        <mxCell id="Ta_uI1cfc9WH9nYOTXBI-58" value="Foundation" style="rounded=0;whiteSpace=wrap;html=1;" parent="Ta_uI1cfc9WH9nYOTXBI-39" vertex="1">
          <mxGeometry x="310" y="573" width="120" height="59" as="geometry" />
        </mxCell>
        <mxCell id="Ta_uI1cfc9WH9nYOTXBI-62" value="&lt;br&gt;Induction&lt;div&gt;Database&lt;/div&gt;" style="strokeWidth=2;html=1;shape=mxgraph.flowchart.database;whiteSpace=wrap;" parent="Ta_uI1cfc9WH9nYOTXBI-39" vertex="1">
          <mxGeometry x="820" y="494" width="120" height="65" as="geometry" />
        </mxCell>
        <mxCell id="Ta_uI1cfc9WH9nYOTXBI-102" value="Induction New&lt;div&gt;Induction Import&lt;/div&gt;" style="rounded=0;whiteSpace=wrap;html=1;" parent="Ta_uI1cfc9WH9nYOTXBI-39" vertex="1">
          <mxGeometry x="820" y="369" width="120" height="59" as="geometry" />
        </mxCell>
        <mxCell id="pQ9LS37SAZMf7bVdZtcm-80" style="edgeStyle=orthogonalEdgeStyle;rounded=1;orthogonalLoop=1;jettySize=auto;html=1;exitX=0.5;exitY=1;exitDx=0;exitDy=0;entryX=0.5;entryY=0;entryDx=0;entryDy=0;entryPerimeter=0;curved=0;jumpStyle=arc;jumpSize=12;startArrow=classic;startFill=1;" parent="Ta_uI1cfc9WH9nYOTXBI-39" source="Ta_uI1cfc9WH9nYOTXBI-102" target="Ta_uI1cfc9WH9nYOTXBI-62" edge="1">
          <mxGeometry relative="1" as="geometry" />
        </mxCell>
        <mxCell id="Ta_uI1cfc9WH9nYOTXBI-64" value="3rd Party Hosted Services" style="swimlane;whiteSpace=wrap;html=1;shadow=0;swimlaneLine=1;rounded=0;strokeColor=#006EAF;fillColor=#1ba1e2;fontColor=#ffffff;" parent="1" vertex="1">
          <mxGeometry x="-1100" y="-330" width="500" height="690" as="geometry" />
        </mxCell>
        <mxCell id="Ta_uI1cfc9WH9nYOTXBI-87" value="LinkedIn" style="rounded=0;whiteSpace=wrap;html=1;" parent="Ta_uI1cfc9WH9nYOTXBI-64" vertex="1">
          <mxGeometry x="19" y="197" width="120" height="60" as="geometry" />
        </mxCell>
        <mxCell id="Ta_uI1cfc9WH9nYOTXBI-88" value="LearnUpon" style="rounded=0;whiteSpace=wrap;html=1;" parent="Ta_uI1cfc9WH9nYOTXBI-64" vertex="1">
          <mxGeometry x="19" y="276" width="120" height="60" as="geometry" />
        </mxCell>
        <mxCell id="Ta_uI1cfc9WH9nYOTXBI-89" value="Wiley&lt;br&gt;(Sigma Pubs)" style="rounded=0;whiteSpace=wrap;html=1;" parent="Ta_uI1cfc9WH9nYOTXBI-64" vertex="1">
          <mxGeometry x="19" y="354" width="120" height="60" as="geometry" />
        </mxCell>
        <mxCell id="Ta_uI1cfc9WH9nYOTXBI-90" value="Cvent" style="rounded=0;whiteSpace=wrap;html=1;" parent="Ta_uI1cfc9WH9nYOTXBI-64" vertex="1">
          <mxGeometry x="19" y="433" width="120" height="60" as="geometry" />
        </mxCell>
        <mxCell id="b8BEaPC_NLEb_fFKRmvo-4" value="Zoom API" style="rounded=0;whiteSpace=wrap;html=1;" parent="Ta_uI1cfc9WH9nYOTXBI-64" vertex="1">
          <mxGeometry x="340" y="590" width="120" height="60" as="geometry" />
        </mxCell>
        <mxCell id="b8BEaPC_NLEb_fFKRmvo-5" value="Vimeo API" style="rounded=0;whiteSpace=wrap;html=1;" parent="Ta_uI1cfc9WH9nYOTXBI-64" vertex="1">
          <mxGeometry x="180" y="590" width="120" height="60" as="geometry" />
        </mxCell>
        <mxCell id="pQ9LS37SAZMf7bVdZtcm-37" value="The Circle&lt;br&gt;(Higher Logic)" style="rounded=0;whiteSpace=wrap;html=1;" parent="Ta_uI1cfc9WH9nYOTXBI-64" vertex="1">
          <mxGeometry x="19" y="511" width="120" height="60" as="geometry" />
        </mxCell>
        <mxCell id="pQ9LS37SAZMf7bVdZtcm-42" value="Confex" style="rounded=0;whiteSpace=wrap;html=1;" parent="Ta_uI1cfc9WH9nYOTXBI-64" vertex="1">
          <mxGeometry x="19" y="590" width="120" height="60" as="geometry" />
        </mxCell>
        <mxCell id="pQ9LS37SAZMf7bVdZtcm-14" value="DataSync&lt;br&gt;(Higher Logic)" style="rounded=0;whiteSpace=wrap;html=1;" parent="Ta_uI1cfc9WH9nYOTXBI-64" vertex="1">
          <mxGeometry x="19" y="119" width="120" height="60" as="geometry" />
        </mxCell>
        <mxCell id="pQ9LS37SAZMf7bVdZtcm-15" value="Highroad" style="rounded=0;whiteSpace=wrap;html=1;" parent="Ta_uI1cfc9WH9nYOTXBI-64" vertex="1">
          <mxGeometry x="19" y="40" width="120" height="60" as="geometry" />
        </mxCell>
        <mxCell id="pQ9LS37SAZMf7bVdZtcm-85" style="edgeStyle=orthogonalEdgeStyle;rounded=1;orthogonalLoop=1;jettySize=auto;html=1;exitX=0.5;exitY=1;exitDx=0;exitDy=0;curved=0;startArrow=classic;startFill=1;" parent="Ta_uI1cfc9WH9nYOTXBI-64" source="Ta_uI1cfc9WH9nYOTXBI-90" target="Ta_uI1cfc9WH9nYOTXBI-90" edge="1">
          <mxGeometry relative="1" as="geometry" />
        </mxCell>
        <mxCell id="Ta_uI1cfc9WH9nYOTXBI-97" style="edgeStyle=orthogonalEdgeStyle;rounded=1;orthogonalLoop=1;jettySize=auto;html=1;entryX=1;entryY=0.5;entryDx=0;entryDy=0;startArrow=classic;startFill=1;curved=0;jumpStyle=arc;jumpSize=12;exitX=0;exitY=0.5;exitDx=0;exitDy=0;" parent="1" source="Ta_uI1cfc9WH9nYOTXBI-13" target="Ta_uI1cfc9WH9nYOTXBI-88" edge="1">
          <mxGeometry relative="1" as="geometry">
            <mxPoint x="965" y="400" as="sourcePoint" />
          </mxGeometry>
        </mxCell>
        <mxCell id="pQ9LS37SAZMf7bVdZtcm-41" value="SAML 2.0" style="edgeLabel;html=1;align=center;verticalAlign=middle;resizable=0;points=[];" parent="Ta_uI1cfc9WH9nYOTXBI-97" connectable="0" vertex="1">
          <mxGeometry x="0.4663" y="-1" relative="1" as="geometry">
            <mxPoint as="offset" />
          </mxGeometry>
        </mxCell>
        <mxCell id="Ta_uI1cfc9WH9nYOTXBI-99" style="edgeStyle=orthogonalEdgeStyle;rounded=1;orthogonalLoop=1;jettySize=auto;html=1;exitX=1;exitY=0.5;exitDx=0;exitDy=0;entryX=0;entryY=0.5;entryDx=0;entryDy=0;startArrow=classic;startFill=1;strokeColor=default;align=center;verticalAlign=middle;fontFamily=Helvetica;fontSize=11;fontColor=default;labelBackgroundColor=default;jumpStyle=arc;jumpSize=12;endArrow=classic;curved=0;" parent="1" source="Ta_uI1cfc9WH9nYOTXBI-87" target="Ta_uI1cfc9WH9nYOTXBI-13" edge="1">
          <mxGeometry relative="1" as="geometry" />
        </mxCell>
        <mxCell id="pQ9LS37SAZMf7bVdZtcm-40" value="SAML 2.0" style="edgeLabel;html=1;align=center;verticalAlign=middle;resizable=0;points=[];" parent="Ta_uI1cfc9WH9nYOTXBI-99" connectable="0" vertex="1">
          <mxGeometry x="-0.0114" relative="1" as="geometry">
            <mxPoint as="offset" />
          </mxGeometry>
        </mxCell>
        <mxCell id="Ta_uI1cfc9WH9nYOTXBI-117" style="edgeStyle=orthogonalEdgeStyle;shape=connector;rounded=1;jumpStyle=arc;jumpSize=12;orthogonalLoop=1;jettySize=auto;html=1;strokeColor=#A50040;align=center;verticalAlign=middle;fontFamily=Helvetica;fontSize=11;fontColor=default;labelBackgroundColor=default;startArrow=classic;startFill=1;endArrow=classic;fillColor=#d80073;curved=0;entryX=0.5;entryY=1;entryDx=0;entryDy=0;entryPerimeter=0;exitX=0;exitY=0.5;exitDx=0;exitDy=0;" parent="1" source="Ta_uI1cfc9WH9nYOTXBI-60" target="Ta_uI1cfc9WH9nYOTXBI-14" edge="1">
          <mxGeometry relative="1" as="geometry">
            <mxPoint x="630" y="-20" as="targetPoint" />
            <mxPoint x="-300" y="567" as="sourcePoint" />
          </mxGeometry>
        </mxCell>
        <mxCell id="Ta_uI1cfc9WH9nYOTXBI-119" style="edgeStyle=orthogonalEdgeStyle;shape=connector;rounded=1;jumpStyle=arc;jumpSize=12;orthogonalLoop=1;jettySize=auto;html=1;strokeColor=#A50040;align=center;verticalAlign=middle;fontFamily=Helvetica;fontSize=11;fontColor=default;labelBackgroundColor=default;startArrow=classic;startFill=1;endArrow=classic;fillColor=#d80073;curved=0;entryX=0.5;entryY=1;entryDx=0;entryDy=0;entryPerimeter=0;exitX=0;exitY=0.5;exitDx=0;exitDy=0;" parent="1" source="Ta_uI1cfc9WH9nYOTXBI-59" target="Ta_uI1cfc9WH9nYOTXBI-14" edge="1">
          <mxGeometry relative="1" as="geometry">
            <mxPoint x="970" y="420" as="targetPoint" />
            <mxPoint x="-210" y="460" as="sourcePoint" />
          </mxGeometry>
        </mxCell>
        <mxCell id="b8BEaPC_NLEb_fFKRmvo-8" style="edgeStyle=orthogonalEdgeStyle;rounded=1;orthogonalLoop=1;jettySize=auto;html=1;exitX=0;exitY=0.75;exitDx=0;exitDy=0;entryX=0.5;entryY=1;entryDx=0;entryDy=0;startArrow=classic;startFill=1;curved=0;jumpStyle=arc;jumpSize=12;" parent="1" source="Ta_uI1cfc9WH9nYOTXBI-56" target="b8BEaPC_NLEb_fFKRmvo-4" edge="1">
          <mxGeometry relative="1" as="geometry" />
        </mxCell>
        <mxCell id="b8BEaPC_NLEb_fFKRmvo-9" style="edgeStyle=orthogonalEdgeStyle;rounded=1;orthogonalLoop=1;jettySize=auto;html=1;entryX=0.5;entryY=1;entryDx=0;entryDy=0;startArrow=classic;startFill=1;curved=0;jumpStyle=arc;jumpSize=12;exitX=0.25;exitY=1;exitDx=0;exitDy=0;" parent="1" source="Ta_uI1cfc9WH9nYOTXBI-56" target="b8BEaPC_NLEb_fFKRmvo-5" edge="1">
          <mxGeometry relative="1" as="geometry">
            <mxPoint x="300" y="1200" as="sourcePoint" />
          </mxGeometry>
        </mxCell>
        <mxCell id="b8BEaPC_NLEb_fFKRmvo-19" style="edgeStyle=orthogonalEdgeStyle;shape=connector;rounded=1;jumpStyle=arc;jumpSize=12;orthogonalLoop=1;jettySize=auto;html=1;exitX=1;exitY=0.5;exitDx=0;exitDy=0;entryX=0;entryY=0.5;entryDx=0;entryDy=0;entryPerimeter=0;strokeColor=#A50040;align=center;verticalAlign=middle;fontFamily=Helvetica;fontSize=11;fontColor=default;labelBackgroundColor=default;startArrow=classic;startFill=1;endArrow=classic;fillColor=#d80073;curved=0;" parent="1" source="Ta_uI1cfc9WH9nYOTXBI-89" target="Ta_uI1cfc9WH9nYOTXBI-14" edge="1">
          <mxGeometry relative="1" as="geometry" />
        </mxCell>
        <mxCell id="b8BEaPC_NLEb_fFKRmvo-62" value="&lt;span style=&quot;background-color: light-dark(rgb(0, 0, 0), rgb(249, 145, 129)); line-height: 100%;&quot;&gt;AWS / Amazon&lt;/span&gt;" style="swimlane;whiteSpace=wrap;html=1;fontFamily=Helvetica;fontSize=11;fillColor=#60a917;strokeColor=#2D7600;fontColor=#ffffff;startSize=23;" parent="1" vertex="1">
          <mxGeometry x="470" y="110" width="380" height="430" as="geometry" />
        </mxCell>
        <mxCell id="b8BEaPC_NLEb_fFKRmvo-21" value="AWS Assets" style="strokeWidth=2;html=1;shape=mxgraph.flowchart.stored_data;whiteSpace=wrap;" parent="b8BEaPC_NLEb_fFKRmvo-62" vertex="1">
          <mxGeometry x="240" y="70" width="100" height="60" as="geometry" />
        </mxCell>
        <mxCell id="Ta_uI1cfc9WH9nYOTXBI-101" value="Induction Legacy / Nurseleader Front" style="rounded=0;whiteSpace=wrap;html=1;" parent="b8BEaPC_NLEb_fFKRmvo-62" vertex="1">
          <mxGeometry x="60" y="308.5" width="120" height="60" as="geometry" />
        </mxCell>
        <mxCell id="pQ9LS37SAZMf7bVdZtcm-55" value="Chapter Directory" style="rounded=0;whiteSpace=wrap;html=1;" parent="b8BEaPC_NLEb_fFKRmvo-62" vertex="1">
          <mxGeometry x="60" y="70" width="120" height="60" as="geometry" />
        </mxCell>
        <mxCell id="pQ9LS37SAZMf7bVdZtcm-81" style="edgeStyle=orthogonalEdgeStyle;rounded=1;orthogonalLoop=1;jettySize=auto;html=1;exitX=1;exitY=0.5;exitDx=0;exitDy=0;entryX=0.5;entryY=1;entryDx=0;entryDy=0;entryPerimeter=0;curved=0;jumpStyle=arc;jumpSize=12;startArrow=classic;startFill=1;strokeColor=light-dark(#000000,#FF0505);align=center;verticalAlign=middle;fontFamily=Helvetica;fontSize=11;fontColor=default;labelBackgroundColor=default;endArrow=classic;" parent="b8BEaPC_NLEb_fFKRmvo-62" source="Ta_uI1cfc9WH9nYOTXBI-101" target="b8BEaPC_NLEb_fFKRmvo-21" edge="1">
          <mxGeometry relative="1" as="geometry" />
        </mxCell>
        <mxCell id="b8BEaPC_NLEb_fFKRmvo-36" style="edgeStyle=orthogonalEdgeStyle;shape=connector;rounded=1;jumpStyle=arc;jumpSize=12;orthogonalLoop=1;jettySize=auto;html=1;strokeColor=#2D7600;align=center;verticalAlign=middle;fontFamily=Helvetica;fontSize=11;fontColor=default;labelBackgroundColor=default;startArrow=classic;startFill=1;endArrow=classic;fillColor=#60a917;curved=0;entryX=0.5;entryY=1;entryDx=0;entryDy=0;exitX=1;exitY=0.25;exitDx=0;exitDy=0;" parent="1" source="Ta_uI1cfc9WH9nYOTXBI-58" target="Ta_uI1cfc9WH9nYOTXBI-110" edge="1">
          <mxGeometry relative="1" as="geometry">
            <mxPoint x="480" y="20" as="targetPoint" />
            <mxPoint x="-110" y="1346" as="sourcePoint" />
          </mxGeometry>
        </mxCell>
        <mxCell id="b8BEaPC_NLEb_fFKRmvo-37" style="edgeStyle=orthogonalEdgeStyle;shape=connector;rounded=1;jumpStyle=arc;jumpSize=12;orthogonalLoop=1;jettySize=auto;html=1;exitX=0;exitY=0.5;exitDx=0;exitDy=0;strokeColor=#2D7600;align=center;verticalAlign=middle;fontFamily=Helvetica;fontSize=11;fontColor=default;labelBackgroundColor=default;startArrow=classic;startFill=1;endArrow=classic;fillColor=#60a917;curved=0;entryX=0.5;entryY=1;entryDx=0;entryDy=0;" parent="1" source="Ta_uI1cfc9WH9nYOTXBI-102" target="Ta_uI1cfc9WH9nYOTXBI-110" edge="1">
          <mxGeometry relative="1" as="geometry">
            <mxPoint x="830" y="70" as="targetPoint" />
          </mxGeometry>
        </mxCell>
        <mxCell id="b8BEaPC_NLEb_fFKRmvo-1" style="edgeStyle=orthogonalEdgeStyle;rounded=1;orthogonalLoop=1;jettySize=auto;html=1;entryX=0;entryY=0.5;entryDx=0;entryDy=0;entryPerimeter=0;startArrow=classic;startFill=1;curved=0;exitX=0.5;exitY=1;exitDx=0;exitDy=0;fillColor=#60a917;strokeColor=#2D7600;jumpStyle=arc;jumpSize=12;" parent="1" source="Ta_uI1cfc9WH9nYOTXBI-110" target="Ta_uI1cfc9WH9nYOTXBI-61" edge="1">
          <mxGeometry relative="1" as="geometry">
            <mxPoint x="1130" y="690" as="sourcePoint" />
          </mxGeometry>
        </mxCell>
        <mxCell id="b8BEaPC_NLEb_fFKRmvo-38" style="edgeStyle=orthogonalEdgeStyle;shape=connector;rounded=1;jumpStyle=arc;jumpSize=12;orthogonalLoop=1;jettySize=auto;html=1;exitX=1;exitY=0.5;exitDx=0;exitDy=0;strokeColor=#2D7600;align=center;verticalAlign=middle;fontFamily=Helvetica;fontSize=11;fontColor=default;labelBackgroundColor=default;startArrow=classic;startFill=1;endArrow=classic;fillColor=#60a917;curved=0;entryX=0.5;entryY=1;entryDx=0;entryDy=0;" parent="1" source="Ta_uI1cfc9WH9nYOTXBI-57" target="Ta_uI1cfc9WH9nYOTXBI-110" edge="1">
          <mxGeometry relative="1" as="geometry">
            <mxPoint x="1100" y="720" as="targetPoint" />
          </mxGeometry>
        </mxCell>
        <mxCell id="pQ9LS37SAZMf7bVdZtcm-19" style="edgeStyle=orthogonalEdgeStyle;rounded=1;orthogonalLoop=1;jettySize=auto;html=1;jumpStyle=arc;jumpSize=12;startArrow=classic;startFill=1;curved=0;entryX=1;entryY=0.5;entryDx=0;entryDy=0;exitX=0;exitY=0.5;exitDx=0;exitDy=0;" parent="1" source="pQ9LS37SAZMf7bVdZtcm-17" target="pQ9LS37SAZMf7bVdZtcm-14" edge="1">
          <mxGeometry relative="1" as="geometry">
            <mxPoint x="-510" y="-200" as="sourcePoint" />
            <mxPoint x="-900" y="-180" as="targetPoint" />
          </mxGeometry>
        </mxCell>
        <mxCell id="pQ9LS37SAZMf7bVdZtcm-20" style="edgeStyle=orthogonalEdgeStyle;rounded=1;orthogonalLoop=1;jettySize=auto;html=1;exitX=1;exitY=0.5;exitDx=0;exitDy=0;entryX=0;entryY=0.5;entryDx=0;entryDy=0;entryPerimeter=0;strokeColor=#A50040;align=center;verticalAlign=middle;fontFamily=Helvetica;fontSize=11;fontColor=default;labelBackgroundColor=default;jumpStyle=arc;jumpSize=12;startArrow=classic;startFill=1;endArrow=classic;curved=0;fillColor=#d80073;" parent="1" source="Ta_uI1cfc9WH9nYOTXBI-90" target="Ta_uI1cfc9WH9nYOTXBI-14" edge="1">
          <mxGeometry relative="1" as="geometry" />
        </mxCell>
        <mxCell id="pQ9LS37SAZMf7bVdZtcm-38" style="edgeStyle=orthogonalEdgeStyle;rounded=1;orthogonalLoop=1;jettySize=auto;html=1;exitX=1;exitY=0.5;exitDx=0;exitDy=0;strokeColor=#A50040;align=center;verticalAlign=middle;fontFamily=Helvetica;fontSize=11;fontColor=default;labelBackgroundColor=default;jumpStyle=arc;jumpSize=12;startArrow=classic;startFill=1;endArrow=classic;curved=0;fillColor=#d80073;entryX=0;entryY=0.5;entryDx=0;entryDy=0;entryPerimeter=0;" parent="1" source="pQ9LS37SAZMf7bVdZtcm-37" target="Ta_uI1cfc9WH9nYOTXBI-14" edge="1">
          <mxGeometry relative="1" as="geometry">
            <mxPoint x="860" y="340" as="targetPoint" />
          </mxGeometry>
        </mxCell>
        <mxCell id="pQ9LS37SAZMf7bVdZtcm-52" style="edgeStyle=orthogonalEdgeStyle;rounded=1;orthogonalLoop=1;jettySize=auto;html=1;exitX=1;exitY=0.5;exitDx=0;exitDy=0;entryX=0.5;entryY=1;entryDx=0;entryDy=0;entryPerimeter=0;jumpStyle=arc;jumpSize=12;startArrow=classic;startFill=1;curved=0;strokeColor=light-dark(#000000,#FF0505);align=center;verticalAlign=middle;fontFamily=Helvetica;fontSize=11;fontColor=default;labelBackgroundColor=default;endArrow=classic;" parent="1" source="pQ9LS37SAZMf7bVdZtcm-45" target="b8BEaPC_NLEb_fFKRmvo-21" edge="1">
          <mxGeometry relative="1" as="geometry" />
        </mxCell>
        <mxCell id="pQ9LS37SAZMf7bVdZtcm-53" style="edgeStyle=orthogonalEdgeStyle;rounded=1;orthogonalLoop=1;jettySize=auto;html=1;exitX=1;exitY=0.75;exitDx=0;exitDy=0;entryX=0.5;entryY=1;entryDx=0;entryDy=0;entryPerimeter=0;jumpStyle=arc;jumpSize=12;startArrow=classic;startFill=1;curved=0;strokeColor=light-dark(#000000,#FF0505);align=center;verticalAlign=middle;fontFamily=Helvetica;fontSize=11;fontColor=default;labelBackgroundColor=default;endArrow=classic;" parent="1" source="Ta_uI1cfc9WH9nYOTXBI-58" target="b8BEaPC_NLEb_fFKRmvo-21" edge="1">
          <mxGeometry relative="1" as="geometry" />
        </mxCell>
        <mxCell id="pQ9LS37SAZMf7bVdZtcm-63" style="edgeStyle=orthogonalEdgeStyle;rounded=1;orthogonalLoop=1;jettySize=auto;html=1;exitX=1;exitY=0.5;exitDx=0;exitDy=0;entryX=0.5;entryY=1;entryDx=0;entryDy=0;strokeColor=#2D7600;align=center;verticalAlign=middle;fontFamily=Helvetica;fontSize=11;fontColor=default;labelBackgroundColor=default;jumpStyle=arc;jumpSize=12;startArrow=classic;startFill=1;endArrow=classic;curved=0;fillColor=#60a917;" parent="1" source="b8BEaPC_NLEb_fFKRmvo-20" target="Ta_uI1cfc9WH9nYOTXBI-110" edge="1">
          <mxGeometry relative="1" as="geometry" />
        </mxCell>
        <mxCell id="pQ9LS37SAZMf7bVdZtcm-71" style="edgeStyle=orthogonalEdgeStyle;rounded=1;orthogonalLoop=1;jettySize=auto;html=1;exitX=0;exitY=0.5;exitDx=0;exitDy=0;entryX=0.5;entryY=1;entryDx=0;entryDy=0;entryPerimeter=0;strokeColor=#A50040;align=center;verticalAlign=middle;fontFamily=Helvetica;fontSize=11;fontColor=default;labelBackgroundColor=default;jumpStyle=arc;jumpSize=12;startArrow=classic;startFill=1;endArrow=classic;curved=0;fillColor=#d80073;" parent="1" source="b8BEaPC_NLEb_fFKRmvo-20" target="Ta_uI1cfc9WH9nYOTXBI-14" edge="1">
          <mxGeometry relative="1" as="geometry" />
        </mxCell>
        <mxCell id="Ta_uI1cfc9WH9nYOTXBI-118" style="edgeStyle=orthogonalEdgeStyle;shape=connector;rounded=1;jumpStyle=arc;jumpSize=12;orthogonalLoop=1;jettySize=auto;html=1;strokeColor=#A50040;align=center;verticalAlign=middle;fontFamily=Helvetica;fontSize=11;fontColor=default;labelBackgroundColor=default;startArrow=classic;startFill=1;endArrow=classic;fillColor=#d80073;curved=0;entryX=0.5;entryY=1;entryDx=0;entryDy=0;entryPerimeter=0;exitX=0;exitY=0.25;exitDx=0;exitDy=0;" parent="1" source="Ta_uI1cfc9WH9nYOTXBI-56" target="Ta_uI1cfc9WH9nYOTXBI-14" edge="1">
          <mxGeometry relative="1" as="geometry">
            <mxPoint x="-220" y="1350" as="sourcePoint" />
            <mxPoint x="420" y="-70" as="targetPoint" />
          </mxGeometry>
        </mxCell>
        <mxCell id="pQ9LS37SAZMf7bVdZtcm-83" style="edgeStyle=orthogonalEdgeStyle;rounded=1;orthogonalLoop=1;jettySize=auto;html=1;exitX=1;exitY=0.75;exitDx=0;exitDy=0;entryX=0.5;entryY=1;entryDx=0;entryDy=0;entryPerimeter=0;jumpStyle=arc;jumpSize=12;curved=0;startArrow=classic;startFill=1;strokeColor=light-dark(#000000,#FF0505);align=center;verticalAlign=middle;fontFamily=Helvetica;fontSize=11;fontColor=default;labelBackgroundColor=default;endArrow=classic;" parent="1" source="Ta_uI1cfc9WH9nYOTXBI-56" target="b8BEaPC_NLEb_fFKRmvo-21" edge="1">
          <mxGeometry relative="1" as="geometry" />
        </mxCell>
        <mxCell id="pQ9LS37SAZMf7bVdZtcm-82" style="edgeStyle=orthogonalEdgeStyle;rounded=1;orthogonalLoop=1;jettySize=auto;html=1;exitX=1;exitY=0.5;exitDx=0;exitDy=0;exitPerimeter=0;entryX=0;entryY=0.5;entryDx=0;entryDy=0;jumpStyle=arc;jumpSize=12;curved=0;startArrow=classic;startFill=1;" parent="1" source="pQ9LS37SAZMf7bVdZtcm-59" target="Ta_uI1cfc9WH9nYOTXBI-101" edge="1">
          <mxGeometry relative="1" as="geometry" />
        </mxCell>
        <mxCell id="pQ9LS37SAZMf7bVdZtcm-54" style="edgeStyle=orthogonalEdgeStyle;rounded=1;orthogonalLoop=1;jettySize=auto;html=1;entryX=0.5;entryY=1;entryDx=0;entryDy=0;entryPerimeter=0;jumpStyle=arc;jumpSize=12;exitX=1;exitY=0.5;exitDx=0;exitDy=0;startArrow=classic;startFill=1;curved=0;strokeColor=light-dark(#000000,#FF0505);align=center;verticalAlign=middle;fontFamily=Helvetica;fontSize=11;fontColor=default;labelBackgroundColor=default;endArrow=classic;" parent="1" source="Ta_uI1cfc9WH9nYOTXBI-102" target="b8BEaPC_NLEb_fFKRmvo-21" edge="1">
          <mxGeometry relative="1" as="geometry">
            <mxPoint y="1230" as="sourcePoint" />
          </mxGeometry>
        </mxCell>
        <mxCell id="pQ9LS37SAZMf7bVdZtcm-39" style="edgeStyle=orthogonalEdgeStyle;rounded=1;orthogonalLoop=1;jettySize=auto;html=1;jumpStyle=arc;jumpSize=12;startArrow=classic;startFill=1;curved=0;entryX=1;entryY=0.5;entryDx=0;entryDy=0;exitX=0;exitY=0.5;exitDx=0;exitDy=0;" parent="1" source="pQ9LS37SAZMf7bVdZtcm-17" target="pQ9LS37SAZMf7bVdZtcm-15" edge="1">
          <mxGeometry relative="1" as="geometry">
            <mxPoint x="-480" y="-170" as="sourcePoint" />
            <mxPoint x="-940" y="-230" as="targetPoint" />
          </mxGeometry>
        </mxCell>
        <mxCell id="pQ9LS37SAZMf7bVdZtcm-65" style="edgeStyle=orthogonalEdgeStyle;rounded=1;orthogonalLoop=1;jettySize=auto;html=1;exitX=1;exitY=0.25;exitDx=0;exitDy=0;entryX=0.5;entryY=1;entryDx=0;entryDy=0;entryPerimeter=0;jumpStyle=arc;jumpSize=12;startArrow=classic;startFill=1;curved=0;strokeColor=light-dark(#000000,#FF0505);" parent="1" source="Ta_uI1cfc9WH9nYOTXBI-60" target="b8BEaPC_NLEb_fFKRmvo-21" edge="1">
          <mxGeometry relative="1" as="geometry" />
        </mxCell>
        <mxCell id="pQ9LS37SAZMf7bVdZtcm-90" style="edgeStyle=orthogonalEdgeStyle;rounded=1;orthogonalLoop=1;jettySize=auto;html=1;exitX=0.5;exitY=1;exitDx=0;exitDy=0;exitPerimeter=0;entryX=0.25;entryY=1;entryDx=0;entryDy=0;strokeColor=#A50040;align=center;verticalAlign=middle;fontFamily=Helvetica;fontSize=11;fontColor=default;labelBackgroundColor=default;jumpStyle=arc;jumpSize=12;startArrow=classic;startFill=1;endArrow=classic;curved=0;fillColor=#d80073;" parent="1" source="Ta_uI1cfc9WH9nYOTXBI-14" target="Ta_uI1cfc9WH9nYOTXBI-102" edge="1">
          <mxGeometry relative="1" as="geometry">
            <Array as="points">
              <mxPoint x="-350" y="580" />
              <mxPoint x="270" y="580" />
            </Array>
          </mxGeometry>
        </mxCell>
        <mxCell id="pQ9LS37SAZMf7bVdZtcm-91" style="edgeStyle=orthogonalEdgeStyle;rounded=1;orthogonalLoop=1;jettySize=auto;html=1;exitX=1;exitY=0.5;exitDx=0;exitDy=0;entryX=0.5;entryY=1;entryDx=0;entryDy=0;strokeColor=#2D7600;align=center;verticalAlign=middle;fontFamily=Helvetica;fontSize=11;fontColor=default;labelBackgroundColor=default;jumpStyle=arc;jumpSize=12;startArrow=classic;startFill=1;endArrow=classic;curved=0;fillColor=#60a917;" parent="1" source="Ta_uI1cfc9WH9nYOTXBI-59" target="Ta_uI1cfc9WH9nYOTXBI-110" edge="1">
          <mxGeometry relative="1" as="geometry" />
        </mxCell>
      </root>
    </mxGraphModel>
  </diagram>
</mxfile>
